<?xml version="1.0" encoding="UTF-8" standalone="no"?>
<svg
   xmlns:dc="http://purl.org/dc/elements/1.1/"
   xmlns:cc="http://creativecommons.org/ns#"
   xmlns:rdf="http://www.w3.org/1999/02/22-rdf-syntax-ns#"
   xmlns:svg="http://www.w3.org/2000/svg"
   xmlns="http://www.w3.org/2000/svg"
   xmlns:sodipodi="http://sodipodi.sourceforge.net/DTD/sodipodi-0.dtd"
   xmlns:inkscape="http://www.inkscape.org/namespaces/inkscape"
   data-name="Layer 1"
   viewBox="0 0 128 128.24161"
   x="0px"
   y="0px"
   version="1.1"
   id="svg14"
   sodipodi:docname="ack_icon.svg"
   width="128"
   height="128.24161"
   inkscape:version="0.92.3 (2405546, 2018-03-11)">
  <metadata
     id="metadata20">
    <rdf:RDF>
      <cc:Work
         rdf:about="">
        <dc:format>image/svg+xml</dc:format>
        <dc:type
           rdf:resource="http://purl.org/dc/dcmitype/StillImage" />
        <dc:title>Miscellaneous 18 final</dc:title>
      </cc:Work>
    </rdf:RDF>
  </metadata>
  <defs
     id="defs18" />
  <sodipodi:namedview
     pagecolor="#ffffff"
     bordercolor="#666666"
     borderopacity="1"
     objecttolerance="10"
     gridtolerance="10"
     guidetolerance="10"
     inkscape:pageopacity="0"
     inkscape:pageshadow="2"
     inkscape:window-width="1920"
     inkscape:window-height="1145"
     id="namedview16"
     showgrid="false"
     fit-margin-top="0"
     fit-margin-left="0"
     fit-margin-right="0"
     fit-margin-bottom="0"
     inkscape:zoom="4.17193"
     inkscape:cx="31.861"
     inkscape:cy="37.998127"
     inkscape:window-x="2560"
     inkscape:window-y="27"
     inkscape:window-maximized="1"
     inkscape:current-layer="svg14" />
  <title
     id="title2">Miscellaneous 18 final</title>
  <path
     d="M 115.75,0 H 47 a 2,2 0 0 0 0,4 h 68.75 a 8.26,8.26 0 0 1 8.25,8.25 v 74.5 A 8.26,8.26 0 0 1 115.75,95 H 46.33 l 9.59,-9.59 A 2.0011122,2.0011122 0 0 0 53.09,82.58 L 14.25,121.42 V 88.25 a 2,2 0 0 0 -4,0 v 6.49 A 8.26,8.26 0 0 1 4,86.74 V 12.25 A 8.26,8.26 0 0 1 12.25,4 H 31 A 2,2 0 0 0 31,0 H 12.25 A 12.26,12.26 0 0 0 0,12.25 v 74.5 a 12.26,12.26 0 0 0 10.25,12.07 v 27.43 a 2,2 0 0 0 3.41,1.41 L 42.33,99 h 73.42 A 12.26,12.26 0 0 0 128,86.75 V 12.25 A 12.26,12.26 0 0 0 115.75,0 Z"
     id="path4"
     inkscape:connector-curvature="0" />
  <path
     d="m 44,30 h -8 a 4,4 0 0 0 -4,4 v 32 a 4,4 0 0 0 4,4 h 8 a 4,4 0 0 0 4,-4 v -1.39 a 18.9,18.9 0 0 1 10.14,6.25 13.31,13.31 0 0 0 10.11,4.64 h 22.69 a 7,7 0 0 0 6.49,-4.36 2.0027606,2.0027606 0 1 0 -3.71,-1.51 3,3 0 0 1 -2.78,1.87 H 68.25 A 9.31,9.31 0 0 1 61.18,68.25 22.77,22.77 0 0 0 48,60.52 V 39.75 h 4.69 A 6.26,6.26 0 0 0 58.94,33.5 V 18.69 a 3.4,3.4 0 0 1 2.47,-3.15 3,3 0 0 1 3.53,3 v 13 a 4,4 0 0 0 4,4 h 26 a 3,3 0 0 1 0,6 h -6 a 2,2 0 0 0 0,4 h 8 a 3,3 0 0 1 0,6 h -8 a 2,2 0 0 0 0,4 h 7 a 3,3 0 0 1 0,6 h -7 a 2,2 0 0 0 0,4 h 7 A 7,7 0 0 0 101.28,54 7,7 0 0 0 100.63,42.58 7,7 0 0 0 94.94,31.5 h -26 v -13 a 7,7 0 0 0 -8.19,-6.9 7.35,7.35 0 0 0 -5.81,7.09 V 33.5 a 2.25,2.25 0 0 1 -2.25,2.25 H 48 V 34 A 4,4 0 0 0 44,30 Z M 36,66 V 34 h 8 v 32 z"
     id="path6"
     inkscape:connector-curvature="0" />
  <circle
     cx="39"
     cy="2"
     r="2"
     id="circle8" />
</svg>
