<?xml version="1.0" encoding="UTF-8" standalone="no"?>
<svg
   xmlns:dc="http://purl.org/dc/elements/1.1/"
   xmlns:cc="http://creativecommons.org/ns#"
   xmlns:rdf="http://www.w3.org/1999/02/22-rdf-syntax-ns#"
   xmlns:svg="http://www.w3.org/2000/svg"
   xmlns="http://www.w3.org/2000/svg"
   xmlns:sodipodi="http://sodipodi.sourceforge.net/DTD/sodipodi-0.dtd"
   xmlns:inkscape="http://www.inkscape.org/namespaces/inkscape"
   version="1.1"
   x="0px"
   y="0px"
   viewBox="0 0 33.883999 31.617001"
   enable-background="new 0 0 34 34"
   xml:space="preserve"
   id="svg46"
   sodipodi:docname="slides_icon.svg"
   width="33.883999"
   height="31.617001"
   inkscape:version="0.92.3 (2405546, 2018-03-11)"><metadata
     id="metadata52"><rdf:RDF><cc:Work
         rdf:about=""><dc:format>image/svg+xml</dc:format><dc:type
           rdf:resource="http://purl.org/dc/dcmitype/StillImage" /><dc:title></dc:title></cc:Work></rdf:RDF></metadata><defs
     id="defs50" /><sodipodi:namedview
     pagecolor="#ffffff"
     bordercolor="#666666"
     borderopacity="1"
     objecttolerance="10"
     gridtolerance="10"
     guidetolerance="10"
     inkscape:pageopacity="0"
     inkscape:pageshadow="2"
     inkscape:window-width="1920"
     inkscape:window-height="1145"
     id="namedview48"
     showgrid="false"
     fit-margin-top="0"
     fit-margin-left="0"
     fit-margin-right="0"
     fit-margin-bottom="0"
     inkscape:zoom="5.5529412"
     inkscape:cx="16.941"
     inkscape:cy="11.559"
     inkscape:window-x="2560"
     inkscape:window-y="27"
     inkscape:window-maximized="1"
     inkscape:current-layer="svg46" /><circle
     cx="15.516"
     cy="23.559"
     r="2.5339999"
     id="circle28" /><path
     d="m 17.023,26.812 h -3.015 c 0,0 -2.388,-0.036 -2.616,1.269 -0.228,1.305 -0.45,3.536 -0.45,3.536 h 4.573 4.574 c 0,0 -0.223,-2.231 -0.45,-3.536 -0.227,-1.305 -2.616,-1.269 -2.616,-1.269 z"
     id="path30"
     inkscape:connector-curvature="0" /><circle
     cx="4.573"
     cy="23.559"
     r="2.533"
     id="circle32" /><path
     d="M 6.081,26.812 H 3.065 c 0,0 -2.388,-0.036 -2.615,1.269 C 0.223,29.386 0,31.617 0,31.617 h 4.573 4.573 c 0,0 -0.223,-2.231 -0.45,-3.536 C 8.469,26.776 6.081,26.812 6.081,26.812 Z"
     id="path34"
     inkscape:connector-curvature="0" /><circle
     cx="28.155001"
     cy="2.796"
     r="2.796"
     id="circle36" /><path
     d="m 32.108,7.2310001 c -0.894,-0.52 -2.201,-0.479 -2.201,-0.479 l -1.751,2.784 -1.752,-2.784 c 0,0 -1.69,0.041 -2.598,0.766 -0.562,0.447 -2.466,1.952 -2.838,1.965 -0.877,-0.059 -3.534,-0.79 -5.004,-1.236 -0.745,-0.228 -1.521,0.225 -1.735,1.009 C 14.014,10.039 14.443,10.859 15.187,11.084 c 0.419,0.128 4.132,1.249 5.6,1.349 0.051,0.002 0.101,0.004 0.151,0.004 0.747,0 1.624,-0.355 2.456,-0.824 0.226,5.513 0.96,15.754 0.96,15.754 0,0.956 0.736,1.731 1.646,1.731 0.908,0 1.646,-0.775 1.646,-1.731 0,0 -0.28,-9.074 0.511,-9.074 0.79,0 0.511,9.074 0.511,9.074 0,0.956 0.736,1.731 1.645,1.731 0.91,0 1.646,-0.775 1.646,-1.731 0,0 0.313,-4.379 0.594,-8.951 0.658,-0.078 1.192,-0.632 1.242,-1.352 0.008,-0.098 0.086,-3.822 0.089,-6.611 C 33.883,8.8500001 33.473,8.0200001 32.108,7.2310001 Z"
     id="path38"
     inkscape:connector-curvature="0" /><path
     d="M 6.201,15.981 V 2.0410001 h 15.821 v 4.807 c 0.229,-0.177 0.482,-0.374 0.77,-0.604 0.263,-0.209 0.557,-0.372 0.857,-0.511 v -3.762 c 0,-0.859 -0.698,-1.55700001 -1.556,-1.55700001 H 6.129 c -0.857,0 -1.556,0.69700001 -1.556,1.55700001 V 16.051 c 0,0.858 0.698,1.557 1.556,1.557 h 15.952 c -0.033,-0.547 -0.064,-1.091 -0.096,-1.627 z"
     id="path40"
     inkscape:connector-curvature="0" /></svg>